<?xml version="1.0" encoding="UTF-8"?>
<svg xmlns="http://www.w3.org/2000/svg" xmlns:xlink="http://www.w3.org/1999/xlink" width="22pt" height="22pt" viewBox="0 0 22 22" version="1.1">
<style xmlns="http://www.w3.org/2000/svg">
		#surface1 { stroke: #306bf3;stroke-linecap:round;stroke-linejoin:round;stroke-width: 1 } 
</style>
<g id="surface1">
<path d="M 0.585938 11 L 0.585938 18.691406 L 21.414062 18.691406 L 21.414062 3.308594 L 0.585938 3.308594 Z M 20.929688 5.226562 L 20.929688 6.605469 L 16.519531 8.980469 C 14.09375 10.285156 11.976562 11.398438 11.8125 11.453125 C 11.410156 11.585938 10.65625 11.59375 10.246094 11.472656 C 10.074219 11.417969 8.070312 10.367188 5.515625 8.996094 L 1.070312 6.605469 L 1.070312 3.84375 L 20.929688 3.84375 Z M 10.023438 11.914062 C 10.347656 12.027344 10.464844 12.042969 11 12.042969 C 11.535156 12.042969 11.652344 12.027344 11.976562 11.914062 C 12.1875 11.84375 14.222656 10.777344 16.640625 9.472656 L 20.929688 7.164062 L 20.929688 18.15625 L 1.070312 18.15625 L 1.070312 7.164062 L 5.359375 9.472656 C 7.777344 10.777344 9.8125 11.84375 10.023438 11.914062 Z M 10.023438 11.914062 "/>
</g>
</svg>
