<?xml version="1.0" encoding="UTF-8"?>
<svg xmlns="http://www.w3.org/2000/svg" xmlns:xlink="http://www.w3.org/1999/xlink" width="22pt" height="22pt" viewBox="0 0 22 22" version="1.1">
<style xmlns="http://www.w3.org/2000/svg">
		#surface1 { stroke: #306bf3;stroke-linecap:round;stroke-linejoin:round;stroke-width: 1 } 
</style>
<g id="surface1">
<path d="M 10.660156 1.703125 C 10.1875 1.785156 10.035156 1.875 8.566406 2.890625 L 7.957031 3.308594 L 3.894531 3.308594 L 3.894531 6.117188 L 2.238281 7.257812 L 0.589844 8.394531 L 0.585938 14.636719 L 0.585938 20.878906 L 21.414062 20.878906 L 21.414062 8.394531 L 19.761719 7.257812 L 18.105469 6.117188 L 18.105469 3.308594 L 14.042969 3.308594 L 13.191406 2.722656 C 12.722656 2.394531 12.261719 2.078125 12.167969 2.019531 C 11.75 1.757812 11.113281 1.621094 10.660156 1.703125 Z M 11.558594 2.277344 C 11.695312 2.328125 12.105469 2.570312 12.480469 2.824219 L 13.152344 3.285156 L 12.074219 3.300781 C 11.488281 3.304688 10.519531 3.304688 9.925781 3.300781 L 8.847656 3.285156 L 9.523438 2.824219 C 9.894531 2.570312 10.308594 2.328125 10.441406 2.277344 C 10.75 2.171875 11.25 2.171875 11.558594 2.277344 Z M 17.609375 7.117188 L 17.59375 10.386719 L 15.585938 11.8125 L 13.574219 13.238281 L 8.425781 13.238281 L 6.414062 11.8125 L 4.40625 10.382812 L 4.390625 7.117188 L 4.378906 3.84375 L 17.621094 3.84375 Z M 3.875 9.96875 C 3.859375 9.976562 3.339844 9.628906 2.714844 9.183594 L 1.582031 8.382812 L 1.378906 8.527344 C 1.261719 8.605469 1.167969 8.671875 1.167969 8.683594 C 1.167969 8.6875 1.261719 8.761719 1.371094 8.84375 C 1.488281 8.921875 3.085938 10.054688 4.925781 11.355469 L 8.269531 13.726562 L 13.734375 13.726562 L 17.246094 11.238281 C 19.175781 9.871094 20.777344 8.730469 20.796875 8.710938 C 20.820312 8.691406 20.746094 8.609375 20.628906 8.527344 L 20.417969 8.382812 L 19.285156 9.183594 C 18.660156 9.628906 18.140625 9.976562 18.125 9.96875 C 18.117188 9.953125 18.109375 9.21875 18.117188 8.335938 L 18.128906 6.726562 L 19.519531 7.683594 L 20.90625 8.644531 L 20.929688 20.394531 L 1.070312 20.394531 L 1.082031 14.523438 L 1.09375 8.648438 L 2.480469 7.691406 L 3.871094 6.730469 L 3.882812 8.335938 C 3.890625 9.21875 3.882812 9.953125 3.875 9.96875 Z M 3.875 9.96875 "/>
</g>
</svg>
