<?xml version="1.0" encoding="UTF-8"?>
<svg xmlns="http://www.w3.org/2000/svg" xmlns:xlink="http://www.w3.org/1999/xlink" width="22pt" height="22pt" viewBox="0 0 22 22" version="1.1">
<style xmlns="http://www.w3.org/2000/svg">
		#surface1 {stroke-linecap: round;stroke-linejoin: round;stroke-width: 1;fill: #306bf3; } 
</style>
<g xmlns="http://www.w3.org/2000/svg" id="surface1">
<path d="M 12.429688 2.507812 C 11.894531 2.789062 11.851562 3.53125 12.355469 3.859375 C 12.476562 3.941406 12.660156 3.960938 13.566406 3.980469 C 14.71875 4.007812 14.820312 4.035156 15.054688 4.34375 C 15.160156 4.488281 15.160156 4.570312 15.160156 12 C 15.160156 19.429688 15.160156 19.511719 15.054688 19.65625 C 14.820312 19.964844 14.71875 19.992188 13.566406 20.019531 C 12.660156 20.039062 12.476562 20.058594 12.355469 20.140625 C 11.851562 20.46875 11.894531 21.210938 12.429688 21.492188 C 12.660156 21.617188 12.695312 21.617188 13.777344 21.59375 C 15.015625 21.574219 15.203125 21.535156 15.738281 21.167969 L 16.003906 20.996094 L 16.257812 21.164062 C 16.820312 21.546875 16.992188 21.578125 18.300781 21.585938 C 19.40625 21.585938 19.488281 21.578125 19.625 21.472656 C 19.894531 21.269531 19.992188 21.09375 19.992188 20.792969 C 19.984375 20.589844 19.953125 20.46875 19.863281 20.347656 C 19.652344 20.042969 19.539062 20.019531 18.46875 20.019531 C 17.558594 20.019531 17.472656 20.007812 17.257812 19.894531 C 17.117188 19.828125 16.976562 19.703125 16.910156 19.59375 C 16.804688 19.40625 16.804688 19.339844 16.804688 12 C 16.804688 4.660156 16.804688 4.59375 16.910156 4.40625 C 16.976562 4.296875 17.117188 4.171875 17.257812 4.097656 C 17.472656 3.992188 17.558594 3.980469 18.484375 3.980469 C 19.421875 3.980469 19.480469 3.976562 19.652344 3.859375 C 19.886719 3.707031 20.042969 3.328125 19.996094 3.058594 C 19.949219 2.804688 19.683594 2.511719 19.4375 2.4375 C 19.304688 2.398438 18.875 2.382812 18.179688 2.398438 C 17.011719 2.425781 16.789062 2.472656 16.257812 2.835938 L 16.003906 3.003906 L 15.738281 2.832031 C 15.203125 2.464844 15.015625 2.425781 13.777344 2.40625 C 12.695312 2.382812 12.660156 2.382812 12.429688 2.507812 Z M 12.429688 2.507812 "/>
<path d="M 2.773438 6.53125 C 2.671875 6.59375 2.554688 6.734375 2.496094 6.867188 C 2.394531 7.078125 2.390625 7.269531 2.390625 12 C 2.390625 16.730469 2.394531 16.921875 2.496094 17.132812 C 2.554688 17.265625 2.671875 17.40625 2.773438 17.46875 C 2.945312 17.574219 3.027344 17.574219 8.273438 17.574219 L 13.59375 17.574219 L 13.59375 15.980469 L 3.980469 15.980469 L 3.980469 8.019531 L 13.59375 8.019531 L 13.59375 6.425781 L 8.273438 6.425781 C 3.027344 6.425781 2.945312 6.425781 2.773438 6.53125 Z M 2.773438 6.53125 "/>
<path d="M 18.425781 7.222656 L 18.425781 8.019531 L 20.019531 8.019531 L 20.019531 15.980469 L 18.425781 15.980469 L 18.425781 17.574219 L 19.742188 17.574219 C 21.246094 17.574219 21.3125 17.558594 21.503906 17.132812 C 21.605469 16.921875 21.609375 16.730469 21.609375 12 C 21.609375 7.269531 21.605469 7.078125 21.503906 6.867188 C 21.3125 6.441406 21.246094 6.425781 19.742188 6.425781 L 18.425781 6.425781 Z M 18.425781 7.222656 "/>
<path d="M 5.574219 12 L 5.574219 14.390625 L 12 14.390625 L 12 9.609375 L 5.574219 9.609375 Z M 5.574219 12 "/>
</g>
</svg>
